<svg viewBox="0 0 560 204" xmlns="http://www.w3.org/2000/svg" role="img" aria-label="Objetos de conexión Python y su función"><style>.s5scb-k{fill:#175c3c;}.s5scb-kt{font:700 12px "IBM Plex Mono",monospace;fill:#fff;}.s5scb-v{fill:#f4faf6;stroke:#175c3c;stroke-width:1;}.s5scb-vt{font:12px system-ui,sans-serif;fill:#123f2b;}</style><rect x="10" y="6" width="120" height="28" rx="6" class="s5scb-k"/><text x="70.0" y="25" text-anchor="middle" class="s5scb-kt">SCB</text><rect x="138" y="6" width="412" height="28" rx="6" class="s5scb-v"/><text x="146" y="25" class="s5scb-vt">¿cómo llega el driver de forma segura a esta base?</text><rect x="10" y="38" width="120" height="28" rx="6" class="s5scb-k"/><text x="70.0" y="57" text-anchor="middle" class="s5scb-kt">TOKEN</text><rect x="138" y="38" width="412" height="28" rx="6" class="s5scb-v"/><text x="146" y="57" class="s5scb-vt">¿con qué credencial me autentico?</text><rect x="10" y="70" width="120" height="28" rx="6" class="s5scb-k"/><text x="70.0" y="89" text-anchor="middle" class="s5scb-kt">Cluster</text><rect x="138" y="70" width="412" height="28" rx="6" class="s5scb-v"/><text x="146" y="89" class="s5scb-vt">cliente Python configurado</text><rect x="10" y="102" width="120" height="28" rx="6" class="s5scb-k"/><text x="70.0" y="121" text-anchor="middle" class="s5scb-kt">Session</text><rect x="138" y="102" width="412" height="28" rx="6" class="s5scb-v"/><text x="146" y="121" class="s5scb-vt">canal con el que ejecuto CQL</text><rect x="10" y="134" width="120" height="28" rx="6" class="s5scb-k"/><text x="70.0" y="153" text-anchor="middle" class="s5scb-kt">prepare</text><rect x="138" y="134" width="412" height="28" rx="6" class="s5scb-v"/><text x="146" y="153" class="s5scb-vt">plantilla CQL con espacios ? para valores</text><rect x="10" y="166" width="120" height="28" rx="6" class="s5scb-k"/><text x="70.0" y="185" text-anchor="middle" class="s5scb-kt">execute</text><rect x="138" y="166" width="412" height="28" rx="6" class="s5scb-v"/><text x="146" y="185" class="s5scb-vt">envía la plantilla + los valores reales</text></svg>